<?xml version="1.0"?>
<svg width="640" height="480" xmlns="http://www.w3.org/2000/svg" xmlns:svg="http://www.w3.org/2000/svg" style="vector-effect: non-scaling-stroke;">
 <!-- Created with SVG-edit - https://github.com/SVG-Edit/svgedit-->
 <g class="layer">
  <title>Layer 1</title>
  <rect fill="#FF0000" height="202" id="svg_1" stroke="#000000" stroke-width="5" width="283" x="208.5" y="187.5"/>
  <path d="m167.807517,184.335625l175.928567,-142l175.928567,142l-351.857134,0z" fill="#00ff00" id="svg_2" stroke="#000000" stroke-width="5"/>
  <rect fill="#56ffff" height="1" id="svg_5" stroke="#000000" stroke-dasharray="null" stroke-linecap="null" stroke-linejoin="null" stroke-width="5" width="0" x="475.5" y="444.5"/>
  <path d="m36.487116,464.789836c0,0 42.896974,-43.09381 44.64787,-43.09381c1.750897,0 111.181952,-14.364603 110.744228,-15.162637c-0.437724,-0.798034 19.69759,-10.374436 19.259866,-11.172469c-0.437724,-0.798034 256.068669,-2.394101 255.630945,-3.192134c-0.437724,-0.798034 26.701177,-3.990168 34.580213,2.394101c7.879036,6.384268 56.0287,27.13314 62.156839,30.325274c6.128139,3.192134 28.01435,15.96067 27.576626,15.162637" fill="#7f3f00" id="svg_15" stroke="#7f3f00" stroke-dasharray="null" stroke-linecap="null" stroke-linejoin="null" stroke-width="5" transform="rotate(0.699959 313.789 427.727)"/>
  <text fill="#000000" font-family="serif" font-size="24" id="svg_16" stroke="#7f3f00" stroke-dasharray="null" stroke-linecap="null" stroke-linejoin="null" stroke-width="0" text-anchor="middle" x="138.5" xml:space="preserve" y="471.5"/>
  <rect fill="#56ffff" height="32.999998" id="svg_17" stroke="#56ffff" stroke-dasharray="null" stroke-linecap="null" stroke-linejoin="null" stroke-width="5" width="633.999984" x="3.500016" y="443.500001"/>
  <rect fill="#ff7f00" height="0" id="svg_37" stroke="#ff7f00" stroke-dasharray="null" stroke-linecap="null" stroke-linejoin="null" stroke-width="5" width="7" x="93.5" y="107.5"/>
  <g id="svg_42">
   <path d="m386.837665,45.979835l5.627106,-3.944754l9.745719,-2.277672l11.254214,0l9.745719,2.277672l5.627105,3.944754l0,4.555345l-5.627105,3.944754l-9.745719,2.277672l-11.254214,0l-9.745719,-2.277672l-5.627106,-3.944754l0,-4.555345z" fill="#ff7f00" id="svg_20" stroke="#ff7f00" stroke-dasharray="null" stroke-linecap="null" stroke-linejoin="null" stroke-width="5"/>
   <path d="m386.83766,126.97983l5.62711,-3.94475l9.74572,-2.27767l11.25421,0l9.74572,2.27767l5.62711,3.94475l0,4.55535l-5.62711,3.94475l-9.74572,2.27768l-11.25421,0l-9.74572,-2.27768l-5.62711,-3.94475l0,-4.55535z" fill="#ff7f00" id="svg_21" stroke="#ff7f00" stroke-dasharray="null" stroke-linecap="null" stroke-linejoin="null" stroke-width="5"/>
   <rect fill="#ff7f00" height="77" id="svg_39" stroke="#ff7f00" stroke-dasharray="null" stroke-linecap="null" stroke-linejoin="null" stroke-width="5" width="41.999998" x="386.500001" y="49.5"/>
  </g>
  <g id="svg_43">
   <rect fill="#56ffff" height="78" id="svg_3" stroke="#000000" stroke-dasharray="null" stroke-linecap="null" stroke-linejoin="null" stroke-width="5" width="102" x="297.5" y="245.5"/>
   <rect fill="#56ffff" height="71" id="svg_4" stroke="#000000" stroke-dasharray="null" stroke-linecap="null" stroke-linejoin="null" stroke-width="5" width="4" x="337.5" y="248.5"/>
  </g>
 </g>
</svg>