<svg width="41" height="28" viewBox="0 0 41 28" fill="none" xmlns="http://www.w3.org/2000/svg">
<g opacity="0.7">
<rect x="4" y="15" width="2" height="10" rx="1" fill="white"/>
<rect x="9" y="8" width="2" height="17" rx="1" fill="white"/>
<rect x="14" y="15" width="2" height="10" rx="1" fill="white"/>
<rect x="19" y="12" width="2" height="13" rx="1" fill="white"/>
</g>
<circle cx="26" cy="10" r="9" fill="#F53B49" stroke="#1A1A25" stroke-width="2"/>
<path d="M23.9434 6.72727V14H23.0628V7.65057H23.0202L21.2446 8.82955V7.93466L23.0628 6.72727H23.9434ZM28.3078 14.0994C27.8911 14.0994 27.5159 14.0166 27.1821 13.8509C26.8483 13.6851 26.5808 13.4579 26.3795 13.169C26.1783 12.8802 26.0682 12.5511 26.0493 12.1818H26.9015C26.9347 12.5109 27.0838 12.7831 27.349 12.9986C27.6165 13.2116 27.9361 13.3182 28.3078 13.3182C28.6061 13.3182 28.8712 13.2483 29.1032 13.1087C29.3376 12.969 29.5211 12.7772 29.6537 12.5334C29.7886 12.2872 29.8561 12.009 29.8561 11.6989C29.8561 11.3816 29.7863 11.0987 29.6466 10.8501C29.5093 10.5992 29.3199 10.4015 29.0784 10.2571C28.8369 10.1127 28.5611 10.0393 28.251 10.0369C28.0284 10.0346 27.8 10.0689 27.5656 10.1399C27.3312 10.2086 27.1383 10.2973 26.9868 10.4062L26.1629 10.3068L26.6032 6.72727H30.3817V7.50852H27.3419L27.0862 9.65341H27.1288C27.278 9.53504 27.465 9.43679 27.6899 9.35866C27.9148 9.28054 28.1492 9.24148 28.393 9.24148C28.8381 9.24148 29.2346 9.34801 29.5827 9.56108C29.933 9.77178 30.2077 10.0606 30.4065 10.4276C30.6077 10.7945 30.7084 11.2135 30.7084 11.6847C30.7084 12.1487 30.6042 12.563 30.3959 12.9276C30.1899 13.2898 29.9058 13.5762 29.5436 13.7869C29.1814 13.9953 28.7694 14.0994 28.3078 14.0994Z" fill="white"/>
</svg>
