<svg width="20" height="20" viewBox="0 0 20 20" fill="none" xmlns="http://www.w3.org/2000/svg">
<circle cx="10" cy="10" r="9" fill="#F53B49" stroke="#1A1A25" stroke-width="2"/>
<path d="M7.94345 6.72727V14H7.06277V7.65057H7.02015L5.24458 8.82955V7.93466L7.06277 6.72727H7.94345ZM12.3078 14.0994C11.8911 14.0994 11.5159 14.0166 11.1821 13.8509C10.8483 13.6851 10.5808 13.4579 10.3795 13.169C10.1783 12.8802 10.0682 12.5511 10.0493 12.1818H10.9015C10.9347 12.5109 11.0838 12.7831 11.349 12.9986C11.6165 13.2116 11.9361 13.3182 12.3078 13.3182C12.6061 13.3182 12.8712 13.2483 13.1032 13.1087C13.3376 12.969 13.5211 12.7772 13.6537 12.5334C13.7886 12.2872 13.8561 12.009 13.8561 11.6989C13.8561 11.3816 13.7863 11.0987 13.6466 10.8501C13.5093 10.5992 13.3199 10.4015 13.0784 10.2571C12.8369 10.1127 12.5611 10.0393 12.251 10.0369C12.0284 10.0346 11.8 10.0689 11.5656 10.1399C11.3312 10.2086 11.1383 10.2973 10.9868 10.4062L10.1629 10.3068L10.6032 6.72727H14.3817V7.50852H11.3419L11.0862 9.65341H11.1288C11.278 9.53504 11.465 9.43679 11.6899 9.35866C11.9148 9.28054 12.1492 9.24148 12.393 9.24148C12.8381 9.24148 13.2346 9.34801 13.5827 9.56108C13.933 9.77178 14.2077 10.0606 14.4065 10.4276C14.6077 10.7945 14.7084 11.2135 14.7084 11.6847C14.7084 12.1487 14.6042 12.563 14.3959 12.9276C14.1899 13.2898 13.9058 13.5762 13.5436 13.7869C13.1814 13.9953 12.7694 14.0994 12.3078 14.0994Z" fill="white"/>
</svg>
