<svg width="40" height="28" viewBox="0 0 40 28" fill="none" xmlns="http://www.w3.org/2000/svg">
<g opacity="0.7">
<path d="M23.0718 8.46031C20.4616 5.85082 16.2154 5.85082 13.6059 8.46031L12.9998 9.06606L12.394 8.46031C9.78455 5.85047 5.53796 5.85047 2.92847 8.46031C0.371968 11.0168 0.355367 15.0691 2.88997 17.8867C5.2017 20.4555 12.0196 26.0054 12.3089 26.2403C12.5053 26.4 12.7416 26.4777 12.9765 26.4777C12.9842 26.4777 12.992 26.4777 12.9994 26.4773C13.2424 26.4886 13.4872 26.4053 13.6899 26.2403C13.9792 26.0054 20.7979 20.4555 23.1103 17.8863C25.6445 15.0691 25.6279 11.0168 23.0718 8.46031ZM21.535 16.4689C19.7326 18.4712 14.7782 22.6009 12.9994 24.0663C11.2207 22.6013 6.26732 18.4719 4.46527 16.4692C2.69712 14.504 2.68052 11.7052 4.42677 9.95896C5.31861 9.06747 6.48984 8.62137 7.66107 8.62137C8.8323 8.62137 10.0035 9.06711 10.8954 9.95896L12.2277 11.2913C12.3863 11.4498 12.5862 11.5445 12.796 11.5777C13.1365 11.6508 13.5059 11.5558 13.7708 11.2916L15.1038 9.95896C16.8879 8.17562 19.7898 8.17598 21.5728 9.95896C23.319 11.7052 23.3024 14.504 21.535 16.4689Z" fill="white"/>
</g>
<circle cx="25" cy="10" r="9" fill="#F53B49" stroke="#1A1A25" stroke-width="2"/>
<path d="M22.9434 6.72727V14H22.0628V7.65057H22.0202L20.2446 8.82955V7.93466L22.0628 6.72727H22.9434ZM27.3078 14.0994C26.8911 14.0994 26.5159 14.0166 26.1821 13.8509C25.8483 13.6851 25.5808 13.4579 25.3795 13.169C25.1783 12.8802 25.0682 12.5511 25.0493 12.1818H25.9015C25.9347 12.5109 26.0838 12.7831 26.349 12.9986C26.6165 13.2116 26.9361 13.3182 27.3078 13.3182C27.6061 13.3182 27.8712 13.2483 28.1032 13.1087C28.3376 12.969 28.5211 12.7772 28.6537 12.5334C28.7886 12.2872 28.8561 12.009 28.8561 11.6989C28.8561 11.3816 28.7863 11.0987 28.6466 10.8501C28.5093 10.5992 28.3199 10.4015 28.0784 10.2571C27.8369 10.1127 27.5611 10.0393 27.251 10.0369C27.0284 10.0346 26.8 10.0689 26.5656 10.1399C26.3312 10.2086 26.1383 10.2973 25.9868 10.4062L25.1629 10.3068L25.6032 6.72727H29.3817V7.50852H26.3419L26.0862 9.65341H26.1288C26.278 9.53504 26.465 9.43679 26.6899 9.35866C26.9148 9.28054 27.1492 9.24148 27.393 9.24148C27.8381 9.24148 28.2346 9.34801 28.5827 9.56108C28.933 9.77178 29.2077 10.0606 29.4065 10.4276C29.6077 10.7945 29.7084 11.2135 29.7084 11.6847C29.7084 12.1487 29.6042 12.563 29.3959 12.9276C29.1899 13.2898 28.9058 13.5762 28.5436 13.7869C28.1814 13.9953 27.7694 14.0994 27.3078 14.0994Z" fill="white"/>
</svg>
